<svg width="231" height="47" viewBox="0 0 231 47" fill="none" xmlns="http://www.w3.org/2000/svg">
    <path d="M120.839 35.5649H101.601V37.4464H120.839V35.5649Z" fill="#E3010F"/>
    <path fill-rule="evenodd" clip-rule="evenodd"
          d="M49.0128 5.83716H57.2914V21.8769C57.2914 23.4761 57.0562 24.9813 56.5388 26.3924C56.0214 27.8035 55.2688 29.0265 54.1869 30.1084C53.1051 31.1902 52.0232 31.8958 50.8473 32.3191C49.248 32.9306 47.3195 33.2128 45.0147 33.2128C43.6976 33.2128 42.2865 33.1188 40.7343 32.9306C39.1821 32.7425 37.9121 32.3662 36.8772 31.8488C35.8424 31.2843 34.9017 30.5317 34.008 29.5439C33.1613 28.5561 32.5498 27.5213 32.2206 26.4395C31.7031 24.7461 31.468 23.1939 31.468 21.8769V5.83716H39.8406V22.2532C39.8406 23.7113 40.2639 24.8872 41.0636 25.6869C41.8632 26.5335 42.9921 26.9098 44.4502 26.9098C45.8614 26.9098 46.9902 26.4865 47.8369 25.6869C48.6366 24.8872 49.0599 23.7113 49.0599 22.2532V5.83716H49.0128Z"
          fill="#E3010F"/>
    <path fill-rule="evenodd" clip-rule="evenodd"
          d="M71.0263 17.1736H73.0489C74.6481 17.1736 75.777 16.8914 76.4356 16.327C77.0941 15.7625 77.4233 15.0569 77.4233 14.2103C77.4233 13.3636 77.1411 12.658 76.5767 12.0466C76.0122 11.4821 74.9774 11.1529 73.4252 11.1529H71.0733V17.1736H71.0263ZM62.7007 5.69653H76.5296C79.54 5.69653 81.7978 6.40209 83.303 7.86025C84.8082 9.27137 85.5608 11.341 85.5608 13.9751C85.5608 16.7033 84.7612 18.8199 83.1148 20.3251C81.4685 21.8303 78.9756 22.6299 75.6359 22.6299H71.0733V32.6018H62.7477V5.69653H62.7007Z"
          fill="#E3010F"/>
    <path d="M98.5901 5.79004H90.2645V32.6953H98.5901V5.79004Z" fill="#E3010F"/>
    <path fill-rule="evenodd" clip-rule="evenodd"
          d="M0 6.12012H8.27855V16.2802L17.0275 6.12012H28.0812L18.2505 16.2802L28.5046 33.0254H18.2505L12.606 21.9717L8.27855 26.4402V33.0254H0V6.12012Z"
          fill="#E3010F"/>
    <path fill-rule="evenodd" clip-rule="evenodd"
          d="M123.379 5.83743H131.704V15.9975L140.406 5.83743H151.46L141.676 15.9975L151.93 32.7427H141.676L136.032 21.689L131.751 26.2046V32.7898H123.426V5.83743H123.379ZM213.643 5.50817H221.969V32.4135H213.643V5.50817ZM194.405 16.8912H196.428C198.027 16.8912 199.156 16.609 199.814 16.0445C200.473 15.4801 200.802 14.7745 200.802 13.9278C200.802 13.0812 200.52 12.3756 199.955 11.7641C199.391 11.1526 198.356 10.8704 196.804 10.8704H194.452V16.8912H194.405ZM186.079 5.41409H199.908C202.919 5.41409 205.177 6.11965 206.682 7.5778C208.187 8.98892 208.94 11.0586 208.94 13.6926C208.94 16.4208 208.14 18.5375 206.494 20.0427C204.847 21.5479 202.354 22.3475 199.015 22.3475H194.452V32.3194H186.126V5.41409H186.079ZM172.439 5.60224H180.717V21.6419C180.717 23.2412 180.482 24.7464 179.965 26.1575C179.447 27.5686 178.695 28.7916 177.613 29.8735C176.578 30.9083 175.449 31.6609 174.273 32.0842C172.674 32.6957 170.745 32.9779 168.44 32.9779C167.123 32.9779 165.712 32.8838 164.16 32.6957C162.608 32.5075 161.338 32.1312 160.303 31.6138C159.268 31.0494 158.327 30.2968 157.434 29.309C156.587 28.3212 155.976 27.2864 155.646 26.2046C155.129 24.5112 154.894 22.959 154.894 21.6419V5.60224H163.172V22.0182C163.172 23.4764 163.596 24.6523 164.395 25.452C165.195 26.2986 166.324 26.6749 167.782 26.6749C169.193 26.6749 170.322 26.2516 171.169 25.452C171.968 24.6523 172.392 23.4764 172.392 22.0182V5.60224H172.439ZM111.384 0.66333H231V41.5387H111.384V0.66333Z"
          fill="#401D6D"/>
    <path d="M120.792 35.5649H111.384V37.4464H120.792V35.5649Z" fill="white"/>
    <path fill-rule="evenodd" clip-rule="evenodd"
          d="M98.7782 38.4813L97.4141 39.2339C97.1319 38.9517 96.8967 38.7635 96.6615 38.6695C96.4264 38.5754 96.0971 38.5284 95.7678 38.5284C95.1564 38.5284 94.639 38.7165 94.2627 39.0928C93.8864 39.4691 93.6982 39.9395 93.6982 40.5039C93.6982 41.0684 93.8864 41.5387 94.2627 41.868C94.639 42.2443 95.1093 42.3854 95.7208 42.3854C96.4734 42.3854 97.0378 42.1502 97.4612 41.6328L98.7782 42.5265C98.0727 43.4673 97.0849 43.8906 95.7678 43.8906C94.5919 43.8906 93.6982 43.5613 93.0397 42.8558C92.3812 42.1502 92.0519 41.3506 92.0519 40.4099C92.0519 39.7513 92.193 39.1869 92.5223 38.6224C92.8515 38.105 93.2749 37.6817 93.8864 37.3524C94.4508 37.0232 95.1093 36.8821 95.8149 36.8821C96.4734 36.8821 97.0849 37.0232 97.6023 37.2584C98.0256 37.6347 98.449 38.0109 98.7782 38.4813ZM85.6548 43.7965H84.7611V37.1643H86.4074V41.0684L89.7941 37.1643H90.5938V43.7965H88.9945V39.9865L85.6548 43.7965ZM79.7752 42.5265H80.6219C80.9511 42.5265 81.1863 42.4325 81.3274 42.2913C81.4685 42.1502 81.5156 42.0091 81.5156 41.821C81.5156 41.5858 81.4215 41.3976 81.2804 41.2095C81.1393 41.0213 80.857 40.9273 80.4807 40.9273H79.7752V42.5265ZM79.7752 39.7513H80.4337C80.7159 39.7513 80.9041 39.7043 81.0452 39.5632C81.1863 39.4221 81.2804 39.281 81.2804 39.0928C81.2804 38.8576 81.2333 38.6695 81.0452 38.5284C80.9041 38.3872 80.7159 38.3402 80.5278 38.3402H80.3396H79.7752V39.7513ZM78.1289 43.7965V37.1643H80.81C81.7037 37.1643 82.2682 37.3524 82.5974 37.6817C82.9267 38.0109 83.0678 38.4343 83.0678 38.8576C83.0678 39.5161 82.7385 39.9865 82.08 40.2687C82.9737 40.551 83.3971 41.1154 83.3971 41.9621C83.3971 42.4325 83.303 42.8087 83.0678 43.091C82.8326 43.3732 82.5504 43.5613 82.1741 43.7025C81.7978 43.7965 81.3274 43.8436 80.6689 43.8436H78.1289V43.7965ZM73.284 38.5284C72.7666 38.5284 72.3433 38.7165 71.967 39.0458C71.6377 39.4221 71.4496 39.8924 71.4496 40.4569C71.4496 41.0684 71.6377 41.5387 71.967 41.868C72.2963 42.2443 72.7666 42.4325 73.284 42.4325C73.8015 42.4325 74.2248 42.2443 74.554 41.868C74.8833 41.4917 75.0715 41.0213 75.0715 40.4569C75.0715 39.8924 74.8833 39.4221 74.554 39.0458C74.2248 38.7165 73.8015 38.5284 73.284 38.5284ZM71.4966 37.1643V37.9169C71.7788 37.6347 72.1081 37.3995 72.4844 37.2584C72.8137 37.1172 73.19 37.0232 73.6133 37.0232C74.46 37.0232 75.2126 37.3524 75.8241 38.0109C76.4355 38.6695 76.7178 39.5161 76.7178 40.551C76.7178 41.5387 76.3885 42.3854 75.777 43.0439C75.1655 43.7025 74.4129 44.0317 73.5663 44.0317C73.19 44.0317 72.8137 43.9847 72.4844 43.8436C72.1552 43.7025 71.8259 43.4673 71.4966 43.185V46.3365H69.8503V37.2584H71.4966V37.1643ZM66.8399 39.6573C66.7459 39.281 66.5107 38.9987 66.1814 38.7635C65.8522 38.5284 65.4759 38.4343 65.0525 38.4343C64.5822 38.4343 64.1588 38.5754 63.8296 38.8106C63.5944 38.9517 63.4062 39.281 63.2181 39.6573H66.8399ZM68.5333 40.9743H63.171C63.2651 41.4447 63.4533 41.821 63.7825 42.1032C64.1118 42.3854 64.5351 42.5265 65.0525 42.5265C65.664 42.5265 66.2285 42.2913 66.6518 41.868L68.0629 42.5265C67.7337 43.0439 67.3103 43.3732 66.7929 43.6084C66.3225 43.8436 65.7111 43.9847 65.0525 43.9847C64.0177 43.9847 63.171 43.6554 62.5125 42.9969C61.854 42.3384 61.5247 41.5387 61.5247 40.551C61.5247 39.5161 61.854 38.7165 62.5125 38.0109C63.171 37.3524 63.9707 37.0232 64.9585 37.0232C65.9933 37.0232 66.8399 37.3524 67.4985 38.0109C68.157 38.6695 68.4862 39.5632 68.4862 40.645L68.5333 40.9743ZM60.3488 38.4813L58.9847 39.2339C58.7025 38.9517 58.4673 38.7635 58.2321 38.6695C57.9969 38.5754 57.6677 38.5284 57.3384 38.5284C56.7269 38.5284 56.2095 38.7165 55.8332 39.0928C55.4569 39.4691 55.2688 39.9395 55.2688 40.5039C55.2688 41.0684 55.4569 41.5387 55.8332 41.868C56.2095 42.2443 56.6799 42.3854 57.2914 42.3854C58.044 42.3854 58.6084 42.1502 59.0318 41.6328L60.3488 42.5265C59.6432 43.4673 58.6555 43.8906 57.3384 43.8906C56.1625 43.8906 55.2688 43.5613 54.6103 42.8558C53.9517 42.1502 53.6225 41.3506 53.6225 40.4099C53.6225 39.7513 53.7636 39.1869 54.0928 38.6224C54.4221 38.105 54.8455 37.6817 55.4569 37.3524C56.0214 37.0232 56.6799 36.8821 57.3855 36.8821C58.044 36.8821 58.6555 37.0232 59.1729 37.2584C59.5962 37.6347 60.0195 38.0109 60.3488 38.4813ZM48.8717 39.7043H51.9762V41.2565H48.8717V39.7043ZM41.9102 37.1643H43.5565V39.6573L45.8613 37.1643H47.8839L44.9206 40.4099L47.931 43.7965H45.7202L43.7447 41.4447L43.5565 41.6328V43.7495H41.9102V37.1643ZM38.8057 41.1624H36.548V39.7043H38.7587C38.3824 38.9047 37.7239 38.4813 36.8302 38.4813C36.1717 38.4813 35.6072 38.7165 35.0898 39.2339L33.7257 38.4813C34.5724 37.4935 35.5602 36.9761 36.7831 36.9761C37.865 36.9761 38.7587 37.3054 39.4643 37.9639C40.1698 38.6224 40.4991 39.4691 40.4991 40.5039C40.4991 41.4917 40.1698 42.2913 39.4643 42.9499C38.8057 43.6084 37.865 43.9376 36.7361 43.9376C35.5131 43.9376 34.5254 43.4673 33.7257 42.5736L35.0428 41.6799C35.4661 42.1973 36.0306 42.4795 36.7831 42.4795C37.818 42.4795 38.4295 42.0562 38.8057 41.1624ZM31.0916 40.4569C31.0916 39.8924 30.9035 39.4221 30.5742 39.0928C30.245 38.7165 29.8216 38.5284 29.2572 38.5284C28.7398 38.5284 28.3164 38.7165 27.9872 39.0928C27.6579 39.4691 27.4698 39.9395 27.4698 40.4569C27.4698 41.0213 27.6579 41.4917 27.9872 41.868C28.3164 42.2443 28.7398 42.3854 29.2572 42.3854C29.7746 42.3854 30.1979 42.1973 30.5272 41.868C30.9035 41.5387 31.0916 41.0684 31.0916 40.4569ZM32.3146 34.4832V36.0354C31.8442 36.0824 31.3739 36.1295 30.9505 36.1295C30.1509 36.1295 29.5394 36.1765 29.1161 36.2235C28.6927 36.2706 28.3635 36.4117 28.0342 36.6469C27.705 36.8821 27.5168 37.1172 27.3757 37.4465C27.2346 37.7287 27.1875 38.1521 27.1405 38.7165C27.6109 37.5876 28.4576 36.9761 29.6335 36.9761C30.4802 36.9761 31.2328 37.3054 31.8442 37.9169C32.4557 38.5284 32.785 39.375 32.785 40.3628C32.785 41.3976 32.4557 42.2443 31.7502 42.9028C31.0916 43.5613 30.245 43.9376 29.2572 43.9376C28.4576 43.9376 27.752 43.7025 27.1405 43.185C26.529 42.6676 26.1057 42.1032 25.9646 41.3976C25.7764 40.6921 25.6824 39.9865 25.6824 39.1869C25.6824 38.1991 25.8235 37.3995 26.0587 36.7409C26.2938 36.1295 26.6231 35.6591 27.0464 35.3298C27.4698 35.0006 27.9401 34.8124 28.4576 34.7183C28.975 34.6243 29.7746 34.5302 30.8094 34.4832C31.4679 34.5302 31.9853 34.4832 32.3146 34.4832ZM24.3183 43.7965H14.7227V37.1643H16.416V42.1973H18.7208V37.1643H20.3672V42.1973H22.672V37.1643H24.3183V43.7965ZM11.7123 39.6573C11.6182 39.281 11.383 38.9987 11.0538 38.7635C10.7245 38.5284 10.3482 38.4343 9.92488 38.4343C9.45451 38.4343 9.03118 38.5754 8.70191 38.8106C8.46673 38.9517 8.27858 39.281 8.09043 39.6573H11.7123ZM13.4056 40.9743H8.04339C8.13746 41.4447 8.32561 41.821 8.65487 42.1032C8.98414 42.3854 9.40747 42.5265 9.92488 42.5265C10.5364 42.5265 11.1008 42.2913 11.5241 41.868L12.9353 42.5265C12.606 43.0439 12.1827 43.3732 11.6653 43.6084C11.1949 43.8436 10.5834 43.9847 9.92488 43.9847C8.89006 43.9847 8.04339 43.6554 7.38487 42.9969C6.72635 42.3384 6.39709 41.5387 6.39709 40.551C6.39709 39.5161 6.72635 38.7165 7.38487 38.0109C8.04339 37.3524 8.84302 37.0232 9.83081 37.0232C10.8656 37.0232 11.7123 37.3524 12.3708 38.0109C13.0293 38.6695 13.3586 39.5632 13.3586 40.645L13.4056 40.9743ZM0.0470581 37.1643H1.69336V39.6573L3.99819 37.1643H6.02079L3.05745 40.4099L6.06783 43.7965H3.85708L1.88151 41.4447L1.69336 41.6328V43.7495H0.0470581V37.1643Z"
          fill="#E3010F"/>
</svg>
